<svg width="18" height="18" viewBox="0 0 18 18" fill="none" xmlns="http://www.w3.org/2000/svg">
<path d="M17.3251 2.33329C17.3251 1.41663 16.5834 0.666626 15.6667 0.666626H2.33341C1.41675 0.666626 0.666748 1.41663 0.666748 2.33329V12.3333C0.666748 13.25 1.41675 14 2.33341 14H14.0001L17.3334 17.3333L17.3251 2.33329ZM13.1667 10.6666H4.83342C4.37508 10.6666 4.00008 10.2916 4.00008 9.83329C4.00008 9.37496 4.37508 8.99996 4.83342 8.99996H13.1667C13.6251 8.99996 14.0001 9.37496 14.0001 9.83329C14.0001 10.2916 13.6251 10.6666 13.1667 10.6666ZM13.1667 8.16663H4.83342C4.37508 8.16663 4.00008 7.79163 4.00008 7.33329C4.00008 6.87496 4.37508 6.49996 4.83342 6.49996H13.1667C13.6251 6.49996 14.0001 6.87496 14.0001 7.33329C14.0001 7.79163 13.6251 8.16663 13.1667 8.16663ZM13.1667 5.66663H4.83342C4.37508 5.66663 4.00008 5.29163 4.00008 4.83329C4.00008 4.37496 4.37508 3.99996 4.83342 3.99996H13.1667C13.6251 3.99996 14.0001 4.37496 14.0001 4.83329C14.0001 5.29163 13.6251 5.66663 13.1667 5.66663Z" fill="#BDBDBD"/>
</svg>
