<svg width="10" height="16" viewBox="0 0 10 16" fill="none" xmlns="http://www.w3.org/2000/svg">
<path d="M8.81351 7.5222L0.260381 0.841729C0.238031 0.824133 0.211172 0.813199 0.182888 0.81018C0.154604 0.807162 0.126042 0.812182 0.100482 0.824664C0.0749226 0.837147 0.0534024 0.856586 0.0383925 0.880748C0.0233825 0.90491 0.0154918 0.932816 0.0156267 0.96126V2.42789C0.0156267 2.52086 0.0592652 2.61003 0.131363 2.66695L6.96172 8.00032L0.131363 13.3337C0.0573679 13.3906 0.0156267 13.4798 0.0156267 13.5728V15.0394C0.0156267 15.1665 0.16172 15.2367 0.260381 15.1589L8.81351 8.47845C8.8862 8.42174 8.94501 8.34921 8.98546 8.26635C9.02591 8.1835 9.04693 8.09252 9.04693 8.00032C9.04693 7.90813 9.02591 7.81714 8.98546 7.73429C8.94501 7.65144 8.8862 7.5789 8.81351 7.5222Z" fill="#4F4F4F"/>
</svg>
