<svg width="8" height="12" viewBox="0 0 8 12" xmlns="http://www.w3.org/2000/svg">
<path d="M6.89777 5.66281L0.860269 0.947189C0.844493 0.934768 0.825533 0.92705 0.805568 0.924919C0.785603 0.922788 0.765441 0.926332 0.747399 0.935143C0.729357 0.943955 0.714166 0.957676 0.703571 0.974732C0.692976 0.991787 0.687406 1.01149 0.687501 1.03156V2.06683C0.687501 2.13246 0.718305 2.1954 0.769198 2.23558L5.59063 6.00031L0.769198 9.76505C0.716966 9.80522 0.687501 9.86817 0.687501 9.9338V10.9691C0.687501 11.0588 0.790626 11.1083 0.860269 11.0534L6.89777 6.33781C6.94908 6.29779 6.9906 6.24658 7.01915 6.1881C7.0477 6.12962 7.06254 6.06539 7.06254 6.00031C7.06254 5.93523 7.0477 5.87101 7.01915 5.81253C6.9906 5.75404 6.94908 5.70284 6.89777 5.66281Z" fill="current" fill-opacity="0.85"/>
</svg>
