<svg width="13" height="13" viewBox="0 0 13 13" fill="none" xmlns="http://www.w3.org/2000/svg">
<path d="M6.50033 6.50008C5.69824 6.50008 5.01161 6.21449 4.44043 5.64331C3.86925 5.07213 3.58366 4.3855 3.58366 3.58341C3.58366 2.78133 3.86925 2.0947 4.44043 1.52352C5.01161 0.952338 5.69824 0.666748 6.50033 0.666748C7.30241 0.666748 7.98904 0.952338 8.56022 1.52352C9.1314 2.0947 9.41699 2.78133 9.41699 3.58341C9.41699 4.3855 9.1314 5.07213 8.56022 5.64331C7.98904 6.21449 7.30241 6.50008 6.50033 6.50008ZM0.666992 12.3334V10.2917C0.666992 9.87855 0.773329 9.49878 0.986003 9.15242C1.19868 8.80607 1.48123 8.54175 1.83366 8.35946C2.58713 7.98272 3.35276 7.70017 4.13053 7.5118C4.90831 7.32343 5.69824 7.22925 6.50033 7.22925C7.30241 7.22925 8.09234 7.32343 8.87012 7.5118C9.64789 7.70017 10.4135 7.98272 11.167 8.35946C11.5194 8.54175 11.802 8.80607 12.0146 9.15242C12.2273 9.49878 12.3337 9.87855 12.3337 10.2917V12.3334H0.666992Z" fill="white"/>
</svg>
