<svg width="8" height="12" viewBox="0 0 8 12" fill="none" xmlns="http://www.w3.org/2000/svg">
<path d="M7.33986 2.06621V1.03094C7.33986 0.941211 7.23674 0.891658 7.1671 0.946568L1.1296 5.66219C1.0783 5.70209 1.03679 5.75317 1.00824 5.81154C0.979686 5.86992 0.964844 5.93404 0.964844 5.99902C0.964844 6.06401 0.979686 6.12813 1.00824 6.18651C1.03679 6.24488 1.0783 6.29596 1.1296 6.33585L7.1671 11.0515C7.23808 11.1064 7.33986 11.0568 7.33986 10.9671V9.93184C7.33986 9.86621 7.30906 9.80327 7.25817 9.76309L2.43674 5.99969L7.25817 2.23496C7.30906 2.19478 7.33986 2.13184 7.33986 2.06621Z" fill="#D9D9D9"/>
</svg>
