<svg width="19" height="18" viewBox="0 0 19 18" fill="none" xmlns="http://www.w3.org/2000/svg">
<path fill-rule="evenodd" clip-rule="evenodd" d="M12.5491 10.27L18.2791 16L16.7891 17.49L11.0591 11.76C9.98906 12.53 8.69906 13 7.28906 13C3.69906 13 0.789062 10.09 0.789062 6.5C0.789062 2.91 3.69906 0 7.28906 0C10.8791 0 13.7891 2.91 13.7891 6.5C13.7891 7.91 13.3191 9.2 12.5491 10.27ZM7.28906 2C4.79906 2 2.78906 4.01 2.78906 6.5C2.78906 8.99 4.79906 11 7.28906 11C9.77906 11 11.7891 8.99 11.7891 6.5C11.7891 4.01 9.77906 2 7.28906 2Z" fill="white"/>
</svg>
