<svg width="20" height="17" viewBox="0 0 20 17" fill="none" xmlns="http://www.w3.org/2000/svg">
<path d="M10.9333 0.716722L6.31659 5.33339C6.00825 5.64172 5.83325 6.06672 5.83325 6.50839V14.8334C5.83325 15.7501 6.58325 16.5001 7.49992 16.5001H14.9999C15.6666 16.5001 16.2666 16.1001 16.5333 15.4917L19.2499 9.15006C19.9499 7.50006 18.7416 5.66672 16.9499 5.66672H12.2416L13.0333 1.85006C13.1166 1.43339 12.9916 1.00839 12.6916 0.708389C12.1999 0.225056 11.4166 0.225056 10.9333 0.716722V0.716722ZM2.49992 16.5001C3.41659 16.5001 4.16659 15.7501 4.16659 14.8334V8.16672C4.16659 7.25005 3.41659 6.50006 2.49992 6.50006C1.58325 6.50006 0.833252 7.25005 0.833252 8.16672V14.8334C0.833252 15.7501 1.58325 16.5001 2.49992 16.5001Z" fill="#BDBDBD"/>
</svg>
