<svg width="20" height="17" viewBox="0 0 20 17" fill="none" xmlns="http://www.w3.org/2000/svg">
<path d="M9.06675 16.2833L13.6751 11.6667C13.9834 11.3583 14.1584 10.9333 14.1584 10.4917V2.16667C14.1584 1.25 13.4084 0.5 12.4917 0.5H5.00008C4.33341 0.5 3.73341 0.9 3.47508 1.50833L0.758412 7.85C0.050079 9.5 1.25841 11.3333 3.05008 11.3333H7.75841L6.96675 15.15C6.88341 15.5667 7.00841 15.9917 7.30841 16.2917C7.80008 16.775 8.58341 16.775 9.06675 16.2833ZM17.5001 0.5C16.5834 0.5 15.8334 1.25 15.8334 2.16667V8.83333C15.8334 9.75 16.5834 10.5 17.5001 10.5C18.4167 10.5 19.1667 9.75 19.1667 8.83333V2.16667C19.1667 1.25 18.4167 0.5 17.5001 0.5Z" fill="#BDBDBD"/>
</svg>
