<svg width="320" height="101" viewBox="0 0 320 101" fill="none" xmlns="http://www.w3.org/2000/svg">
<path fill-rule="evenodd" clip-rule="evenodd" d="M50 100.75C77.6142 100.75 100 78.3642 100 50.75C100 23.1358 77.6142 0.75 50 0.75C22.3858 0.75 0 23.1358 0 50.75C0 78.3642 22.3858 100.75 50 100.75ZM50 70.9423C61.1519 70.9423 70.1923 61.9019 70.1923 50.75C70.1923 39.5981 61.1519 30.5577 50 30.5577C38.8481 30.5577 29.8077 39.5981 29.8077 50.75C29.8077 61.9019 38.8481 70.9423 50 70.9423Z" fill="black"/>
<mask id="mask0_1179_18944" style="mask-type:alpha" maskUnits="userSpaceOnUse" x="0" y="0" width="100" height="101">
<path fill-rule="evenodd" clip-rule="evenodd" d="M50 100.75C77.6142 100.75 100 78.3642 100 50.75C100 23.1358 77.6142 0.75 50 0.75C22.3858 0.75 0 23.1358 0 50.75C0 78.3642 22.3858 100.75 50 100.75ZM50 70.9423C61.1519 70.9423 70.1923 61.9019 70.1923 50.75C70.1923 39.5981 61.1519 30.5577 50 30.5577C38.8481 30.5577 29.8077 39.5981 29.8077 50.75C29.8077 61.9019 38.8481 70.9423 50 70.9423Z" fill="white"/>
</mask>
<g mask="url(#mask0_1179_18944)">
<path d="M50.8518 53.75L93 100.75H10L50.8518 53.75Z" fill="url(#paint0_linear_1179_18944)" fill-opacity="0.5"/>
<path d="M50.8518 53.75L93 100.75H10L50.8518 53.75Z" fill="url(#paint1_linear_1179_18944)" fill-opacity="0.3"/>
</g>
<path fill-rule="evenodd" clip-rule="evenodd" d="M130 0.75C118.954 0.75 110 9.7043 110 20.75V80.75C110 91.7957 118.954 100.75 130 100.75H210V70.75H148C143.582 70.75 140 67.1683 140 62.75V38.75C140 34.3317 143.582 30.75 148 30.75H210V0.75H130Z" fill="black"/>
<rect x="149" y="70.75" width="61" height="30" fill="url(#paint2_linear_1179_18944)" fill-opacity="0.45"/>
<path fill-rule="evenodd" clip-rule="evenodd" d="M240 0.75C228.954 0.75 220 9.7043 220 20.75V80.75C220 91.7957 228.954 100.75 240 100.75H320V70.75H258C253.582 70.75 250 67.1683 250 62.75V38.75C250 34.3317 253.582 30.75 258 30.75H320V0.75H240Z" fill="black"/>
<rect x="259" y="70.75" width="61" height="30" fill="url(#paint3_linear_1179_18944)" fill-opacity="0.45"/>
<defs>
<linearGradient id="paint0_linear_1179_18944" x1="58.5" y1="51.75" x2="43.5" y2="62.25" gradientUnits="userSpaceOnUse">
<stop stop-color="white" stop-opacity="0.31"/>
<stop offset="0.864583" stop-color="white" stop-opacity="0"/>
</linearGradient>
<linearGradient id="paint1_linear_1179_18944" x1="88.5" y1="53.75" x2="54.5" y2="39.75" gradientUnits="userSpaceOnUse">
<stop stop-color="white"/>
<stop offset="1" stop-color="white" stop-opacity="0"/>
</linearGradient>
<linearGradient id="paint2_linear_1179_18944" x1="153.5" y1="100.75" x2="210" y2="100.75" gradientUnits="userSpaceOnUse">
<stop offset="0.161458" stop-color="white" stop-opacity="0"/>
<stop offset="1" stop-color="white"/>
</linearGradient>
<linearGradient id="paint3_linear_1179_18944" x1="263.5" y1="100.75" x2="320" y2="100.75" gradientUnits="userSpaceOnUse">
<stop offset="0.161458" stop-color="white" stop-opacity="0"/>
<stop offset="1" stop-color="white"/>
</linearGradient>
</defs>
</svg>
